<svg width="512" height="512" version="1.1" xmlns="http://www.w3.org/2000/svg" desc="Created with imagetracer.js version 1.2.6" ><path fill="rgb(0,0,0)" stroke="rgb(0,0,0)" stroke-width="1" opacity="0" d="M 0 0 L 511.5 0 L 512 0.5 L 512 127.5 L 511 127.5 Q 511.8 125.3 509.5 126 L 449.5 82 L 439.5 77 L 402.5 90 L 400 92.5 L 399 94.5 L 398.5 162 L 383.5 155 L 354.5 147 L 341.5 146 L 340.5 145 L 306.5 145 L 274.5 151 Q 258.4 137.6 237.5 129 L 217.5 122 L 200 119 L 201 115.5 L 237 66.5 L 239 59.5 L 214.5 25 L 212.5 24 L 129.5 24 L 125 27.5 L 104 57.5 L 103 62.5 L 142 116.5 L 142 119 Q 111.2 123.5 88.5 137 Q 61.8 152.3 42 174.5 Q 25.1 193.6 14 218.5 L 4 248.5 L 0.5 274 L 0 0 Z " /><path fill="rgb(0,0,0)" stroke="rgb(0,0,0)" stroke-width="1" opacity="0" d="M 170.5 168 L 197.5 171 L 213.5 176 L 220 179.5 L 196 201.5 Q 172.4 227.4 160 264.5 L 156 279.5 L 154 297.5 L 153 298.5 L 153 333.5 L 157 356.5 L 162 373.5 L 178 405.5 Q 174.2 408.2 166.5 407 L 165.5 406 L 154.5 406 L 143.5 404 L 120.5 396 Q 95.6 383.9 79 363.5 Q 63.5 345.5 56 319.5 L 52 296.5 L 52 278.5 L 57 252.5 L 68 227.5 Q 78.8 209.3 94.5 196 Q 109 183.5 128.5 176 L 149.5 170 L 169.5 169 L 170.5 168 Z " /><path fill="rgb(0,0,0)" stroke="rgb(0,0,0)" stroke-width="1" opacity="0" d="M 511.5 170 L 512 512 L 0 512 L 0 301.5 L 1 301.5 L 1 310.5 L 6 334.5 Q 12 355.5 22 372.5 Q 37.1 398.9 59.5 418 Q 87.3 442.2 127.5 454 L 155.5 459 L 186.5 459 L 187.5 458 L 195.5 458 L 206.5 456 L 219.5 452 Q 242.8 471.2 275.5 481 L 297.5 486 L 314.5 487 L 315.5 488 L 331.5 488 L 332.5 487 L 343.5 487 L 360.5 484 L 389.5 475 Q 424.8 459.8 449 433.5 Q 471.1 410.1 484 377.5 L 489 362.5 L 494 338.5 L 495 304.5 L 494 303.5 L 494 294.5 L 491 277.5 L 482 249.5 Q 468.5 218 446 195.5 Q 475.5 183 508.5 174 L 511 171.5 L 511.5 170 Z " /><path fill="rgb(0,0,0)" stroke="rgb(0,0,0)" stroke-width="1" opacity="0" d="M 317 197 L 342.5 198 L 370.5 206 Q 397.5 218 415 239.5 Q 430.3 257.2 438 282.5 L 442 301.5 L 442 330.5 Q 433 382.5 398.5 409 Q 382.1 422.6 359.5 430 L 336.5 435 L 310.5 435 L 290.5 431 L 275 424.5 L 290 412 L 314 382.5 L 324 365.5 L 334 341.5 L 338 327.5 L 341 311.5 L 341 304.5 L 342 303.5 L 342 271.5 L 341 270.5 L 339 251.5 L 333 230.5 Q 326.4 211.9 317 197 Z " /><path fill="rgb(0,0,0)" stroke="rgb(0,0,0)" stroke-width="1" opacity="0" d="M 263.5 213 Q 277.7 229.3 285 252.5 L 289 270.5 L 290 295.5 L 289 296.5 L 289 304.5 L 286 319.5 L 279 338.5 Q 269.6 358.6 254.5 373 L 238.5 386 L 230.5 390 Q 217 374.5 210 352.5 L 205 328.5 L 205 303.5 L 208 286.5 L 218 260.5 Q 229.2 239.7 246.5 225 L 263.5 213 Z " /><path fill="rgb(67,207,228)" stroke="rgb(67,207,228)" stroke-width="1" opacity="1" d="M 129.5 24 L 212.5 24 L 218 28.5 L 237 55.5 L 239 62.5 L 199.5 118 L 172.5 117 L 170.5 116 L 169.5 117 L 150.5 117 L 149.5 118 L 142 118 L 106 67.5 Q 102.4 65.6 103 59.5 L 127.5 25 L 129.5 24 Z " /><path fill="rgb(67,207,228)" stroke="rgb(67,207,228)" stroke-width="1" opacity="1" d="M 439.5 77 L 449.5 82 L 511 126 L 512 128.5 L 512 169.5 L 508.5 174 L 444.5 195 Q 425.2 174.8 399 161.5 L 399 94.5 L 402.5 90 L 439.5 77 Z " /><path fill="rgb(248,202,128)" stroke="rgb(248,202,128)" stroke-width="1" opacity="1" d="M 188.5 117 L 190 119.5 L 189 119.5 L 188.5 117 Z " /><path fill="rgb(248,202,128)" stroke="rgb(248,202,128)" stroke-width="1" opacity="1" d="M 277.5 151 L 276.5 153 L 277.5 151 Z " /><path fill="rgb(248,202,128)" stroke="rgb(248,202,128)" stroke-width="1" opacity="1" d="M 280.5 155 L 282.5 158 L 280.5 155 Z " /><path fill="rgb(248,202,128)" stroke="rgb(248,202,128)" stroke-width="1" opacity="1" d="M 60.5 157 L 59.5 159 L 60.5 157 Z " /><path fill="rgb(248,202,128)" stroke="rgb(248,202,128)" stroke-width="1" opacity="1" d="M 199.5 163 L 200 165.5 L 199 165.5 L 199.5 163 Z " /><path fill="rgb(248,202,128)" stroke="rgb(248,202,128)" stroke-width="1" opacity="1" d="M 291.5 165 L 293.5 168 L 291.5 165 Z " /><path fill="rgb(248,202,128)" stroke="rgb(248,202,128)" stroke-width="1" opacity="1" d="M 299.5 174 L 302.5 178 L 299.5 174 Z " /><path fill="rgb(248,202,128)" stroke="rgb(248,202,128)" stroke-width="1" opacity="1" d="M 304.5 180 L 306.5 183 L 304.5 180 Z " /><path fill="rgb(248,202,128)" stroke="rgb(248,202,128)" stroke-width="1" opacity="1" d="M 232.5 185 L 233.5 187 L 232.5 185 Z " /><path fill="rgb(248,202,128)" stroke="rgb(248,202,128)" stroke-width="1" opacity="1" d="M 308.5 185 L 309.5 187 L 308.5 185 Z " /><path fill="rgb(248,202,128)" stroke="rgb(248,202,128)" stroke-width="1" opacity="1" d="M 235.5 187 L 236.5 189 L 235.5 187 Z " /><path fill="rgb(248,202,128)" stroke="rgb(248,202,128)" stroke-width="1" opacity="1" d="M 238.5 189 L 239.5 191 L 238.5 189 Z " /><path fill="rgb(248,202,128)" stroke="rgb(248,202,128)" stroke-width="1" opacity="1" d="M 242.5 192 L 243.5 194 L 242.5 192 Z " /><path fill="rgb(248,202,128)" stroke="rgb(248,202,128)" stroke-width="1" opacity="1" d="M 246.5 195 L 248.5 198 L 246.5 195 Z " /><path fill="rgb(248,202,128)" stroke="rgb(248,202,128)" stroke-width="1" opacity="1" d="M 398.5 195 L 399 198.5 L 398 198.5 L 398.5 195 Z " /><path fill="rgb(248,202,128)" stroke="rgb(248,202,128)" stroke-width="1" opacity="1" d="M 93.5 196 L 92.5 198 L 93.5 196 Z " /><path fill="rgb(248,202,128)" stroke="rgb(248,202,128)" stroke-width="1" opacity="1" d="M 195.5 203 L 194.5 205 L 195.5 203 Z " /><path fill="rgb(248,202,128)" stroke="rgb(248,202,128)" stroke-width="1" opacity="1" d="M 399.5 204 L 400 207.5 L 399 207.5 L 399.5 204 Z " /><path fill="rgb(248,202,128)" stroke="rgb(248,202,128)" stroke-width="1" opacity="1" d="M 81.5 208 L 80.5 210 L 81.5 208 Z " /><path fill="rgb(248,202,128)" stroke="rgb(248,202,128)" stroke-width="1" opacity="1" d="M 190.5 209 L 189.5 211 L 190.5 209 Z " /><path fill="rgb(248,202,128)" stroke="rgb(248,202,128)" stroke-width="1" opacity="1" d="M 260.5 209 L 262.5 212 L 260.5 209 Z " /><path fill="rgb(248,202,128)" stroke="rgb(248,202,128)" stroke-width="1" opacity="1" d="M 400.5 216 L 401 222.5 L 400.5 225 Q 397.8 223.8 400 222.5 L 400.5 216 Z " /><path fill="rgb(248,202,128)" stroke="rgb(248,202,128)" stroke-width="1" opacity="1" d="M 245.5 225 L 244.5 227 L 245.5 225 Z " /><path fill="rgb(248,202,128)" stroke="rgb(248,202,128)" stroke-width="1" opacity="1" d="M 234.5 236 L 233.5 238 L 234.5 236 Z " /><path fill="rgb(248,202,128)" stroke="rgb(248,202,128)" stroke-width="1" opacity="1" d="M 0.5 284 L 1 286.5 L 0 286.5 L 0.5 284 Z " /><path fill="rgb(248,202,128)" stroke="rgb(248,202,128)" stroke-width="1" opacity="1" d="M 0.5 288 L 1 290.5 L 0 290.5 L 0.5 288 Z " /><path fill="rgb(248,202,128)" stroke="rgb(248,202,128)" stroke-width="1" opacity="1" d="M 78.5 363 L 79.5 365 L 78.5 363 Z " /><path fill="rgb(248,202,128)" stroke="rgb(248,202,128)" stroke-width="1" opacity="1" d="M 232.5 393 L 233.5 395 L 232.5 393 Z " /><path fill="rgb(248,202,128)" stroke="rgb(248,202,128)" stroke-width="1" opacity="1" d="M 39.5 396 L 40.5 398 L 39.5 396 Z " /><path fill="rgb(248,202,128)" stroke="rgb(248,202,128)" stroke-width="1" opacity="1" d="M 48.5 406 L 52.5 411 L 48.5 406 Z " /><path fill="rgb(248,202,128)" stroke="rgb(248,202,128)" stroke-width="1" opacity="1" d="M 245.5 406 L 246.5 408 L 245.5 406 Z " /><path fill="rgb(248,202,128)" stroke="rgb(248,202,128)" stroke-width="1" opacity="1" d="M 250.5 410 L 251.5 412 L 250.5 410 Z " /><path fill="rgb(248,202,128)" stroke="rgb(248,202,128)" stroke-width="1" opacity="1" d="M 61.5 418 L 62.5 420 L 61.5 418 Z " /><path fill="rgb(248,202,128)" stroke="rgb(248,202,128)" stroke-width="1" opacity="1" d="M 147.5 428 L 146.5 430 L 147.5 428 Z " /><path fill="rgb(248,202,128)" stroke="rgb(248,202,128)" stroke-width="1" opacity="1" d="M 145.5 431 L 144.5 433 L 145.5 431 Z " /><path fill="rgb(248,202,128)" stroke="rgb(248,202,128)" stroke-width="1" opacity="1" d="M 142.5 435 L 141.5 437 L 142.5 435 Z " /><path fill="rgb(248,202,128)" stroke="rgb(248,202,128)" stroke-width="1" opacity="1" d="M 138.5 440 L 137.5 442 L 138.5 440 Z " /><path fill="rgb(248,202,128)" stroke="rgb(248,202,128)" stroke-width="1" opacity="1" d="M 134.5 445 L 131.5 449 L 134.5 445 Z " /><path fill="rgb(248,202,128)" stroke="rgb(248,202,128)" stroke-width="1" opacity="1" d="M 212.5 445 L 213.5 447 L 212.5 445 Z " /><path fill="rgb(248,202,128)" stroke="rgb(248,202,128)" stroke-width="1" opacity="1" d="M 341.5 448 L 340.5 450 L 341.5 448 Z " /><path fill="rgb(248,202,128)" stroke="rgb(248,202,128)" stroke-width="1" opacity="1" d="M 338.5 452 L 337.5 454 L 338.5 452 Z " /><path fill="rgb(248,202,128)" stroke="rgb(248,202,128)" stroke-width="1" opacity="1" d="M 334.5 457 L 332.5 460 L 334.5 457 Z " /><path fill="rgb(248,202,128)" stroke="rgb(248,202,128)" stroke-width="1" opacity="1" d="M 329.5 463 L 326.5 467 L 329.5 463 Z " /><path fill="rgb(248,202,128)" stroke="rgb(248,202,128)" stroke-width="1" opacity="1" d="M 313.5 479 L 310.5 483 L 313.5 479 Z " /><path fill="rgb(185,140,69)" stroke="rgb(185,140,69)" stroke-width="1" opacity="1" d="M 306.5 145 L 310 145.5 L 306.5 146 L 306.5 145 Z " /><path fill="rgb(185,140,69)" stroke="rgb(185,140,69)" stroke-width="1" opacity="1" d="M 338.5 145 L 341 145.5 L 338.5 146 L 338.5 145 Z " /><path fill="rgb(185,140,69)" stroke="rgb(185,140,69)" stroke-width="1" opacity="1" d="M 268.5 146 L 269.5 148 L 268.5 146 Z " /><path fill="rgb(185,140,69)" stroke="rgb(185,140,69)" stroke-width="1" opacity="1" d="M 298.5 146 L 301 146.5 L 298.5 147 L 298.5 146 Z " /><path fill="rgb(185,140,69)" stroke="rgb(185,140,69)" stroke-width="1" opacity="1" d="M 72.5 147 L 71.5 149 L 72.5 147 Z " /><path fill="rgb(185,140,69)" stroke="rgb(185,140,69)" stroke-width="1" opacity="1" d="M 57.5 159 L 55.5 162 L 57.5 159 Z " /><path fill="rgb(185,140,69)" stroke="rgb(185,140,69)" stroke-width="1" opacity="1" d="M 162.5 168 L 170 168.5 L 162.5 169 L 162.5 168 Z " /><path fill="rgb(185,140,69)" stroke="rgb(185,140,69)" stroke-width="1" opacity="1" d="M 172.5 168 L 180 168.5 L 172.5 169 L 172.5 168 Z " /><path fill="rgb(185,140,69)" stroke="rgb(185,140,69)" stroke-width="1" opacity="1" d="M 153.5 169 L 156 169.5 L 153.5 170 L 153.5 169 Z " /><path fill="rgb(185,140,69)" stroke="rgb(185,140,69)" stroke-width="1" opacity="1" d="M 45.5 171 L 42.5 175 L 45.5 171 Z " /><path fill="rgb(185,140,69)" stroke="rgb(185,140,69)" stroke-width="1" opacity="1" d="M 38.5 179 L 37.5 181 L 38.5 179 Z " /><path fill="rgb(185,140,69)" stroke="rgb(185,140,69)" stroke-width="1" opacity="1" d="M 216.5 182 L 215.5 184 L 216.5 182 Z " /><path fill="rgb(185,140,69)" stroke="rgb(185,140,69)" stroke-width="1" opacity="1" d="M 210.5 187 L 206.5 192 L 210.5 187 Z " /><path fill="rgb(185,140,69)" stroke="rgb(185,140,69)" stroke-width="1" opacity="1" d="M 104.5 188 L 103.5 190 L 104.5 188 Z " /><path fill="rgb(185,140,69)" stroke="rgb(185,140,69)" stroke-width="1" opacity="1" d="M 96.5 194 L 95.5 196 L 96.5 194 Z " /><path fill="rgb(185,140,69)" stroke="rgb(185,140,69)" stroke-width="1" opacity="1" d="M 445.5 195 L 446.5 197 L 445.5 195 Z " /><path fill="rgb(185,140,69)" stroke="rgb(185,140,69)" stroke-width="1" opacity="1" d="M 199.5 198 L 196.5 202 L 199.5 198 Z " /><path fill="rgb(185,140,69)" stroke="rgb(185,140,69)" stroke-width="1" opacity="1" d="M 88.5 201 L 85.5 205 L 88.5 201 Z " /><path fill="rgb(185,140,69)" stroke="rgb(185,140,69)" stroke-width="1" opacity="1" d="M 453.5 204 L 455.5 207 L 453.5 204 Z " /><path fill="rgb(185,140,69)" stroke="rgb(185,140,69)" stroke-width="1" opacity="1" d="M 191.5 207 L 190.5 209 L 191.5 207 Z " /><path fill="rgb(185,140,69)" stroke="rgb(185,140,69)" stroke-width="1" opacity="1" d="M 458.5 210 L 459.5 212 L 458.5 210 Z " /><path fill="rgb(185,140,69)" stroke="rgb(185,140,69)" stroke-width="1" opacity="1" d="M 79.5 211 L 78.5 213 L 79.5 211 Z " /><path fill="rgb(185,140,69)" stroke="rgb(185,140,69)" stroke-width="1" opacity="1" d="M 253.5 219 L 252.5 221 L 253.5 219 Z " /><path fill="rgb(185,140,69)" stroke="rgb(185,140,69)" stroke-width="1" opacity="1" d="M 268.5 219 L 269.5 221 L 268.5 219 Z " /><path fill="rgb(185,140,69)" stroke="rgb(185,140,69)" stroke-width="1" opacity="1" d="M 248.5 223 L 247.5 225 L 248.5 223 Z " /><path fill="rgb(185,140,69)" stroke="rgb(185,140,69)" stroke-width="1" opacity="1" d="M 404.5 228 L 411.5 236 L 404.5 228 Z " /><path fill="rgb(185,140,69)" stroke="rgb(185,140,69)" stroke-width="1" opacity="1" d="M 232.5 239 L 231.5 241 L 232.5 239 Z " /><path fill="rgb(185,140,69)" stroke="rgb(185,140,69)" stroke-width="1" opacity="1" d="M 415.5 240 L 416.5 242 L 415.5 240 Z " /><path fill="rgb(185,140,69)" stroke="rgb(185,140,69)" stroke-width="1" opacity="1" d="M 1.5 264 L 2 266.5 L 1 266.5 L 1.5 264 Z " /><path fill="rgb(185,140,69)" stroke="rgb(185,140,69)" stroke-width="1" opacity="1" d="M 341.5 271 L 342 274.5 L 341 274.5 L 341.5 271 Z " /><path fill="rgb(185,140,69)" stroke="rgb(185,140,69)" stroke-width="1" opacity="1" d="M 0.5 274 L 1 278.5 L 0 278.5 L 0.5 274 Z " /><path fill="rgb(185,140,69)" stroke="rgb(185,140,69)" stroke-width="1" opacity="1" d="M 52.5 275 L 53 277.5 L 52 277.5 L 52.5 275 Z " /><path fill="rgb(185,140,69)" stroke="rgb(185,140,69)" stroke-width="1" opacity="1" d="M 289.5 275 L 290 279.5 L 289 279.5 L 289.5 275 Z " /><path fill="rgb(185,140,69)" stroke="rgb(185,140,69)" stroke-width="1" opacity="1" d="M 493.5 294 L 494 296.5 L 493 296.5 L 493.5 294 Z " /><path fill="rgb(185,140,69)" stroke="rgb(185,140,69)" stroke-width="1" opacity="1" d="M 289.5 296 L 290 299.5 L 289 299.5 L 289.5 296 Z " /><path fill="rgb(185,140,69)" stroke="rgb(185,140,69)" stroke-width="1" opacity="1" d="M 0.5 297 L 1 300.5 L 0 300.5 L 0.5 297 Z " /><path fill="rgb(185,140,69)" stroke="rgb(185,140,69)" stroke-width="1" opacity="1" d="M 52.5 297 L 53 300.5 L 52 300.5 L 52.5 297 Z " /><path fill="rgb(185,140,69)" stroke="rgb(185,140,69)" stroke-width="1" opacity="1" d="M 153.5 298 L 154 301.5 L 153 301.5 L 153.5 298 Z " /><path fill="rgb(185,140,69)" stroke="rgb(185,140,69)" stroke-width="1" opacity="1" d="M 205.5 300 L 206 302.5 L 205 302.5 L 205.5 300 Z " /><path fill="rgb(185,140,69)" stroke="rgb(185,140,69)" stroke-width="1" opacity="1" d="M 341.5 300 L 342 303.5 L 341 303.5 L 341.5 300 Z " /><path fill="rgb(185,140,69)" stroke="rgb(185,140,69)" stroke-width="1" opacity="1" d="M 494.5 304 L 495 309.5 L 494 309.5 L 494.5 304 Z " /><path fill="rgb(185,140,69)" stroke="rgb(185,140,69)" stroke-width="1" opacity="1" d="M 1.5 308 L 2 310.5 L 1 310.5 L 1.5 308 Z " /><path fill="rgb(185,140,69)" stroke="rgb(185,140,69)" stroke-width="1" opacity="1" d="M 442.5 308 L 443 324.5 L 442 324.5 L 442.5 308 Z " /><path fill="rgb(185,140,69)" stroke="rgb(185,140,69)" stroke-width="1" opacity="1" d="M 204.5 312 L 205 319.5 L 204 319.5 L 204.5 312 Z " /><path fill="rgb(185,140,69)" stroke="rgb(185,140,69)" stroke-width="1" opacity="1" d="M 494.5 322 L 495 328.5 L 494 328.5 L 494.5 322 Z " /><path fill="rgb(185,140,69)" stroke="rgb(185,140,69)" stroke-width="1" opacity="1" d="M 205.5 329 L 206 331.5 L 205 331.5 L 205.5 329 Z " /><path fill="rgb(185,140,69)" stroke="rgb(185,140,69)" stroke-width="1" opacity="1" d="M 153.5 330 L 154 333.5 L 153 333.5 L 153.5 330 Z " /><path fill="rgb(185,140,69)" stroke="rgb(185,140,69)" stroke-width="1" opacity="1" d="M 441.5 331 L 442 333.5 L 441 333.5 L 441.5 331 Z " /><path fill="rgb(185,140,69)" stroke="rgb(185,140,69)" stroke-width="1" opacity="1" d="M 493.5 336 L 494 338.5 L 493 338.5 L 493.5 336 Z " /><path fill="rgb(185,140,69)" stroke="rgb(185,140,69)" stroke-width="1" opacity="1" d="M 154.5 339 L 155 341.5 L 154 341.5 L 154.5 339 Z " /><path fill="rgb(185,140,69)" stroke="rgb(185,140,69)" stroke-width="1" opacity="1" d="M 265.5 360 L 264.5 362 L 265.5 360 Z " /><path fill="rgb(185,140,69)" stroke="rgb(185,140,69)" stroke-width="1" opacity="1" d="M 77.5 361 L 78.5 363 L 77.5 361 Z " /><path fill="rgb(185,140,69)" stroke="rgb(185,140,69)" stroke-width="1" opacity="1" d="M 260.5 366 L 256.5 371 L 260.5 366 Z " /><path fill="rgb(185,140,69)" stroke="rgb(185,140,69)" stroke-width="1" opacity="1" d="M 82.5 367 L 91.5 377 L 82.5 367 Z " /><path fill="rgb(185,140,69)" stroke="rgb(185,140,69)" stroke-width="1" opacity="1" d="M 253.5 373 L 249.5 378 L 253.5 373 Z " /><path fill="rgb(185,140,69)" stroke="rgb(185,140,69)" stroke-width="1" opacity="1" d="M 96.5 380 L 97.5 382 L 96.5 380 Z " /><path fill="rgb(185,140,69)" stroke="rgb(185,140,69)" stroke-width="1" opacity="1" d="M 245.5 380 L 244.5 382 L 245.5 380 Z " /><path fill="rgb(185,140,69)" stroke="rgb(185,140,69)" stroke-width="1" opacity="1" d="M 241.5 383 L 240.5 385 L 241.5 383 Z " /><path fill="rgb(185,140,69)" stroke="rgb(185,140,69)" stroke-width="1" opacity="1" d="M 420.5 385 L 419.5 387 L 420.5 385 Z " /><path fill="rgb(185,140,69)" stroke="rgb(185,140,69)" stroke-width="1" opacity="1" d="M 33.5 389 L 34.5 391 L 33.5 389 Z " /><path fill="rgb(185,140,69)" stroke="rgb(185,140,69)" stroke-width="1" opacity="1" d="M 417.5 389 L 416.5 391 L 417.5 389 Z " /><path fill="rgb(185,140,69)" stroke="rgb(185,140,69)" stroke-width="1" opacity="1" d="M 305.5 393 L 304.5 395 L 305.5 393 Z " /><path fill="rgb(185,140,69)" stroke="rgb(185,140,69)" stroke-width="1" opacity="1" d="M 412.5 395 L 402.5 406 L 412.5 395 Z " /><path fill="rgb(185,140,69)" stroke="rgb(185,140,69)" stroke-width="1" opacity="1" d="M 301.5 398 L 299.5 401 L 301.5 398 Z " /><path fill="rgb(185,140,69)" stroke="rgb(185,140,69)" stroke-width="1" opacity="1" d="M 41.5 399 L 43.5 402 L 41.5 399 Z " /><path fill="rgb(185,140,69)" stroke="rgb(185,140,69)" stroke-width="1" opacity="1" d="M 159.5 406 L 166 406.5 L 159.5 407 L 159.5 406 Z " /><path fill="rgb(185,140,69)" stroke="rgb(185,140,69)" stroke-width="1" opacity="1" d="M 175.5 406 L 179 406.5 L 175.5 407 L 175.5 406 Z " /><path fill="rgb(185,140,69)" stroke="rgb(185,140,69)" stroke-width="1" opacity="1" d="M 397.5 409 L 396.5 411 L 397.5 409 Z " /><path fill="rgb(185,140,69)" stroke="rgb(185,140,69)" stroke-width="1" opacity="1" d="M 393.5 412 L 392.5 414 L 393.5 412 Z " /><path fill="rgb(185,140,69)" stroke="rgb(185,140,69)" stroke-width="1" opacity="1" d="M 57.5 415 L 59.5 418 L 57.5 415 Z " /><path fill="rgb(185,140,69)" stroke="rgb(185,140,69)" stroke-width="1" opacity="1" d="M 462.5 416 L 461.5 418 L 462.5 416 Z " /><path fill="rgb(185,140,69)" stroke="rgb(185,140,69)" stroke-width="1" opacity="1" d="M 281.5 418 L 280.5 420 L 281.5 418 Z " /><path fill="rgb(185,140,69)" stroke="rgb(185,140,69)" stroke-width="1" opacity="1" d="M 459.5 420 L 458.5 422 L 459.5 420 Z " /><path fill="rgb(185,140,69)" stroke="rgb(185,140,69)" stroke-width="1" opacity="1" d="M 275.5 423 L 274.5 425 L 275.5 423 Z " /><path fill="rgb(185,140,69)" stroke="rgb(185,140,69)" stroke-width="1" opacity="1" d="M 455.5 425 L 454.5 427 L 455.5 425 Z " /><path fill="rgb(185,140,69)" stroke="rgb(185,140,69)" stroke-width="1" opacity="1" d="M 448.5 433 L 439.5 443 L 448.5 433 Z " /><path fill="rgb(185,140,69)" stroke="rgb(185,140,69)" stroke-width="1" opacity="1" d="M 337.5 434 L 340 434.5 L 337.5 435 L 337.5 434 Z " /><path fill="rgb(185,140,69)" stroke="rgb(185,140,69)" stroke-width="1" opacity="1" d="M 320.5 435 L 327 435.5 L 320.5 436 L 320.5 435 Z " /><path fill="rgb(185,140,69)" stroke="rgb(185,140,69)" stroke-width="1" opacity="1" d="M 433.5 447 L 432.5 449 L 433.5 447 Z " /><path fill="rgb(185,140,69)" stroke="rgb(185,140,69)" stroke-width="1" opacity="1" d="M 428.5 451 L 427.5 453 L 428.5 451 Z " /><path fill="rgb(185,140,69)" stroke="rgb(185,140,69)" stroke-width="1" opacity="1" d="M 220.5 452 L 221.5 454 L 220.5 452 Z " /><path fill="rgb(185,140,69)" stroke="rgb(185,140,69)" stroke-width="1" opacity="1" d="M 424.5 454 L 423.5 456 L 424.5 454 Z " /><path fill="rgb(185,140,69)" stroke="rgb(185,140,69)" stroke-width="1" opacity="1" d="M 147.5 457 L 150 457.5 L 147.5 458 L 147.5 457 Z " /><path fill="rgb(185,140,69)" stroke="rgb(185,140,69)" stroke-width="1" opacity="1" d="M 193.5 457 L 196 457.5 L 193.5 458 L 193.5 457 Z " /><path fill="rgb(185,140,69)" stroke="rgb(185,140,69)" stroke-width="1" opacity="1" d="M 155.5 458 L 160 458.5 L 155.5 459 L 155.5 458 Z " /><path fill="rgb(185,140,69)" stroke="rgb(185,140,69)" stroke-width="1" opacity="1" d="M 182.5 458 L 187 458.5 L 182.5 459 L 182.5 458 Z " /><path fill="rgb(185,140,69)" stroke="rgb(185,140,69)" stroke-width="1" opacity="1" d="M 230.5 459 L 231.5 461 L 230.5 459 Z " /><path fill="rgb(185,140,69)" stroke="rgb(185,140,69)" stroke-width="1" opacity="1" d="M 297.5 485 L 300 485.5 L 297.5 486 L 297.5 485 Z " /><path fill="rgb(185,140,69)" stroke="rgb(185,140,69)" stroke-width="1" opacity="1" d="M 340.5 486 L 344 486.5 L 340.5 487 L 340.5 486 Z " /><path fill="rgb(185,140,69)" stroke="rgb(185,140,69)" stroke-width="1" opacity="1" d="M 315.5 487 L 332 487.5 L 315.5 488 L 315.5 487 Z " /><path fill="rgb(218,177,112)" stroke="rgb(218,177,112)" stroke-width="1" opacity="1" d="M 189.5 117 L 192 117.5 L 189.5 118 L 189.5 117 Z " /><path fill="rgb(218,177,112)" stroke="rgb(218,177,112)" stroke-width="1" opacity="1" d="M 196.5 118 L 199 118.5 L 196.5 119 L 196.5 118 Z " /><path fill="rgb(218,177,112)" stroke="rgb(218,177,112)" stroke-width="1" opacity="1" d="M 335.5 145 L 338 145.5 L 335.5 146 L 335.5 145 Z " /><path fill="rgb(218,177,112)" stroke="rgb(218,177,112)" stroke-width="1" opacity="1" d="M 67.5 151 L 66.5 153 L 67.5 151 Z " /><path fill="rgb(218,177,112)" stroke="rgb(218,177,112)" stroke-width="1" opacity="1" d="M 62.5 155 L 61.5 157 L 62.5 155 Z " /><path fill="rgb(218,177,112)" stroke="rgb(218,177,112)" stroke-width="1" opacity="1" d="M 54.5 162 L 46.5 171 L 54.5 162 Z " /><path fill="rgb(218,177,112)" stroke="rgb(218,177,112)" stroke-width="1" opacity="1" d="M 412.5 169 L 413.5 171 L 412.5 169 Z " /><path fill="rgb(218,177,112)" stroke="rgb(218,177,112)" stroke-width="1" opacity="1" d="M 415.5 171 L 416.5 173 L 415.5 171 Z " /><path fill="rgb(218,177,112)" stroke="rgb(218,177,112)" stroke-width="1" opacity="1" d="M 418.5 173 L 419.5 175 L 418.5 173 Z " /><path fill="rgb(218,177,112)" stroke="rgb(218,177,112)" stroke-width="1" opacity="1" d="M 40.5 177 L 39.5 179 L 40.5 177 Z " /><path fill="rgb(218,177,112)" stroke="rgb(218,177,112)" stroke-width="1" opacity="1" d="M 430.5 182 L 431.5 184 L 430.5 182 Z " /><path fill="rgb(218,177,112)" stroke="rgb(218,177,112)" stroke-width="1" opacity="1" d="M 214.5 184 L 213.5 186 L 214.5 184 Z " /><path fill="rgb(218,177,112)" stroke="rgb(218,177,112)" stroke-width="1" opacity="1" d="M 435.5 186 L 439.5 191 L 435.5 186 Z " /><path fill="rgb(218,177,112)" stroke="rgb(218,177,112)" stroke-width="1" opacity="1" d="M 205.5 192 L 200.5 198 L 205.5 192 Z " /><path fill="rgb(218,177,112)" stroke="rgb(218,177,112)" stroke-width="1" opacity="1" d="M 320.5 196 L 328 196.5 L 320.5 197 L 320.5 196 Z " /><path fill="rgb(218,177,112)" stroke="rgb(218,177,112)" stroke-width="1" opacity="1" d="M 91.5 198 L 89.5 201 L 91.5 198 Z " /><path fill="rgb(218,177,112)" stroke="rgb(218,177,112)" stroke-width="1" opacity="1" d="M 84.5 205 L 82.5 208 L 84.5 205 Z " /><path fill="rgb(218,177,112)" stroke="rgb(218,177,112)" stroke-width="1" opacity="1" d="M 193.5 205 L 192.5 207 L 193.5 205 Z " /><path fill="rgb(218,177,112)" stroke="rgb(218,177,112)" stroke-width="1" opacity="1" d="M 243.5 227 L 235.5 236 L 243.5 227 Z " /><path fill="rgb(218,177,112)" stroke="rgb(218,177,112)" stroke-width="1" opacity="1" d="M 0.5 279 L 1 283.5 L 0 283.5 L 0.5 279 Z " /><path fill="rgb(218,177,112)" stroke="rgb(218,177,112)" stroke-width="1" opacity="1" d="M 0.5 291 L 1 296.5 L 0 296.5 L 0.5 291 Z " /><path fill="rgb(218,177,112)" stroke="rgb(218,177,112)" stroke-width="1" opacity="1" d="M 204.5 309 L 205 311.5 L 204 311.5 L 204.5 309 Z " /><path fill="rgb(218,177,112)" stroke="rgb(218,177,112)" stroke-width="1" opacity="1" d="M 204.5 320 L 205 322.5 L 204 322.5 L 204.5 320 Z " /><path fill="rgb(218,177,112)" stroke="rgb(218,177,112)" stroke-width="1" opacity="1" d="M 80.5 365 L 81.5 367 L 80.5 365 Z " /><path fill="rgb(218,177,112)" stroke="rgb(218,177,112)" stroke-width="1" opacity="1" d="M 92.5 377 L 93.5 379 L 92.5 377 Z " /><path fill="rgb(218,177,112)" stroke="rgb(218,177,112)" stroke-width="1" opacity="1" d="M 234.5 395 L 244.5 406 L 234.5 395 Z " /><path fill="rgb(218,177,112)" stroke="rgb(218,177,112)" stroke-width="1" opacity="1" d="M 44.5 402 L 47.5 406 L 44.5 402 Z " /><path fill="rgb(218,177,112)" stroke="rgb(218,177,112)" stroke-width="1" opacity="1" d="M 248.5 408 L 249.5 410 L 248.5 408 Z " /><path fill="rgb(218,177,112)" stroke="rgb(218,177,112)" stroke-width="1" opacity="1" d="M 53.5 411 L 56.5 415 L 53.5 411 Z " /><path fill="rgb(218,177,112)" stroke="rgb(218,177,112)" stroke-width="1" opacity="1" d="M 181.5 411 L 182.5 413 L 181.5 411 Z " /><path fill="rgb(218,177,112)" stroke="rgb(218,177,112)" stroke-width="1" opacity="1" d="M 252.5 411 L 254.5 414 L 252.5 411 Z " /><path fill="rgb(218,177,112)" stroke="rgb(218,177,112)" stroke-width="1" opacity="1" d="M 256.5 414 L 257.5 416 L 256.5 414 Z " /><path fill="rgb(218,177,112)" stroke="rgb(218,177,112)" stroke-width="1" opacity="1" d="M 184.5 415 L 185.5 417 L 184.5 415 Z " /><path fill="rgb(218,177,112)" stroke="rgb(218,177,112)" stroke-width="1" opacity="1" d="M 259.5 416 L 260.5 418 L 259.5 416 Z " /><path fill="rgb(218,177,112)" stroke="rgb(218,177,112)" stroke-width="1" opacity="1" d="M 186.5 418 L 188.5 421 L 186.5 418 Z " /><path fill="rgb(218,177,112)" stroke="rgb(218,177,112)" stroke-width="1" opacity="1" d="M 264.5 419 L 265.5 421 L 264.5 419 Z " /><path fill="rgb(218,177,112)" stroke="rgb(218,177,112)" stroke-width="1" opacity="1" d="M 67.5 423 L 68.5 425 L 67.5 423 Z " /><path fill="rgb(218,177,112)" stroke="rgb(218,177,112)" stroke-width="1" opacity="1" d="M 190.5 423 L 192.5 426 L 190.5 423 Z " /><path fill="rgb(218,177,112)" stroke="rgb(218,177,112)" stroke-width="1" opacity="1" d="M 195.5 429 L 210.5 445 L 195.5 429 Z " /><path fill="rgb(218,177,112)" stroke="rgb(218,177,112)" stroke-width="1" opacity="1" d="M 317.5 435 L 320 435.5 L 317.5 436 L 317.5 435 Z " /><path fill="rgb(218,177,112)" stroke="rgb(218,177,112)" stroke-width="1" opacity="1" d="M 327.5 435 L 331 435.5 L 327.5 436 L 327.5 435 Z " /><path fill="rgb(218,177,112)" stroke="rgb(218,177,112)" stroke-width="1" opacity="1" d="M 214.5 447 L 216.5 450 L 214.5 447 Z " /><path fill="rgb(252,180,64)" stroke="rgb(252,180,64)" stroke-width="1" opacity="1" d="M 263.5 143 L 264.5 145 L 263.5 143 Z " /><path fill="rgb(252,180,64)" stroke="rgb(252,180,64)" stroke-width="1" opacity="1" d="M 266.5 145 L 267.5 147 L 266.5 145 Z " /><path fill="rgb(252,180,64)" stroke="rgb(252,180,64)" stroke-width="1" opacity="1" d="M 273.5 150 L 274.5 152 L 273.5 150 Z " /><path fill="rgb(252,180,64)" stroke="rgb(252,180,64)" stroke-width="1" opacity="1" d="M 432.5 184 L 433.5 186 L 432.5 184 Z " /><path fill="rgb(252,180,64)" stroke="rgb(252,180,64)" stroke-width="1" opacity="1" d="M 440.5 191 L 443.5 195 L 440.5 191 Z " /><path fill="rgb(252,180,64)" stroke="rgb(252,180,64)" stroke-width="1" opacity="1" d="M 447.5 198 L 452.5 204 L 447.5 198 Z " /><path fill="rgb(252,180,64)" stroke="rgb(252,180,64)" stroke-width="1" opacity="1" d="M 455.5 207 L 457.5 210 L 455.5 207 Z " /><path fill="rgb(252,180,64)" stroke="rgb(252,180,64)" stroke-width="1" opacity="1" d="M 263.5 212 L 265.5 215 L 263.5 212 Z " /><path fill="rgb(252,180,64)" stroke="rgb(252,180,64)" stroke-width="1" opacity="1" d="M 459.5 212 L 460.5 214 L 459.5 212 Z " /><path fill="rgb(252,180,64)" stroke="rgb(252,180,64)" stroke-width="1" opacity="1" d="M 462.5 216 L 463.5 218 L 462.5 216 Z " /><path fill="rgb(252,180,64)" stroke="rgb(252,180,64)" stroke-width="1" opacity="1" d="M 267.5 217 L 268.5 219 L 267.5 217 Z " /><path fill="rgb(252,180,64)" stroke="rgb(252,180,64)" stroke-width="1" opacity="1" d="M 464.5 219 L 465.5 221 L 464.5 219 Z " /><path fill="rgb(252,180,64)" stroke="rgb(252,180,64)" stroke-width="1" opacity="1" d="M 466.5 222 L 467.5 224 L 466.5 222 Z " /><path fill="rgb(252,180,64)" stroke="rgb(252,180,64)" stroke-width="1" opacity="1" d="M 271.5 223 L 272.5 225 L 271.5 223 Z " /><path fill="rgb(252,180,64)" stroke="rgb(252,180,64)" stroke-width="1" opacity="1" d="M 401.5 225 L 402.5 227 L 401.5 225 Z " /><path fill="rgb(252,180,64)" stroke="rgb(252,180,64)" stroke-width="1" opacity="1" d="M 412.5 236 L 415.5 240 L 412.5 236 Z " /><path fill="rgb(252,180,64)" stroke="rgb(252,180,64)" stroke-width="1" opacity="1" d="M 417.5 242 L 418.5 244 L 417.5 242 Z " /><path fill="rgb(252,180,64)" stroke="rgb(252,180,64)" stroke-width="1" opacity="1" d="M 420.5 246 L 421.5 248 L 420.5 246 Z " /><path fill="rgb(252,180,64)" stroke="rgb(252,180,64)" stroke-width="1" opacity="1" d="M 340.5 265 L 341 267.5 L 340 267.5 L 340.5 265 Z " /><path fill="rgb(252,180,64)" stroke="rgb(252,180,64)" stroke-width="1" opacity="1" d="M 289.5 272 L 290 274.5 L 289 274.5 L 289.5 272 Z " /><path fill="rgb(252,180,64)" stroke="rgb(252,180,64)" stroke-width="1" opacity="1" d="M 341.5 275 L 342 280.5 L 341 280.5 L 341.5 275 Z " /><path fill="rgb(252,180,64)" stroke="rgb(252,180,64)" stroke-width="1" opacity="1" d="M 341.5 294 L 342 299.5 L 341 299.5 L 341.5 294 Z " /><path fill="rgb(252,180,64)" stroke="rgb(252,180,64)" stroke-width="1" opacity="1" d="M 441.5 296 L 442 298.5 L 441 298.5 L 441.5 296 Z " /><path fill="rgb(252,180,64)" stroke="rgb(252,180,64)" stroke-width="1" opacity="1" d="M 493.5 297 L 494 299.5 L 493 299.5 L 493.5 297 Z " /><path fill="rgb(252,180,64)" stroke="rgb(252,180,64)" stroke-width="1" opacity="1" d="M 289.5 300 L 290 302.5 L 289 302.5 L 289.5 300 Z " /><path fill="rgb(252,180,64)" stroke="rgb(252,180,64)" stroke-width="1" opacity="1" d="M 442.5 304 L 443 307.5 L 442 307.5 L 442.5 304 Z " /><path fill="rgb(252,180,64)" stroke="rgb(252,180,64)" stroke-width="1" opacity="1" d="M 340.5 307 L 341 309.5 L 340 309.5 L 340.5 307 Z " /><path fill="rgb(252,180,64)" stroke="rgb(252,180,64)" stroke-width="1" opacity="1" d="M 494.5 310 L 495 320.5 L 494 320.5 L 494.5 310 Z " /><path fill="rgb(252,180,64)" stroke="rgb(252,180,64)" stroke-width="1" opacity="1" d="M 442.5 325 L 443 327.5 L 442 327.5 L 442.5 325 Z " /><path fill="rgb(252,180,64)" stroke="rgb(252,180,64)" stroke-width="1" opacity="1" d="M 493.5 332 L 494 334.5 L 493 334.5 L 493.5 332 Z " /><path fill="rgb(252,180,64)" stroke="rgb(252,180,64)" stroke-width="1" opacity="1" d="M 273.5 349 L 272.5 351 L 273.5 349 Z " /><path fill="rgb(252,180,64)" stroke="rgb(252,180,64)" stroke-width="1" opacity="1" d="M 269.5 355 L 268.5 357 L 269.5 355 Z " /><path fill="rgb(252,180,64)" stroke="rgb(252,180,64)" stroke-width="1" opacity="1" d="M 267.5 358 L 266.5 360 L 267.5 358 Z " /><path fill="rgb(252,180,64)" stroke="rgb(252,180,64)" stroke-width="1" opacity="1" d="M 263.5 363 L 261.5 366 L 263.5 363 Z " /><path fill="rgb(252,180,64)" stroke="rgb(252,180,64)" stroke-width="1" opacity="1" d="M 248.5 378 L 246.5 381 L 248.5 378 Z " /><path fill="rgb(252,180,64)" stroke="rgb(252,180,64)" stroke-width="1" opacity="1" d="M 243.5 382 L 242.5 384 L 243.5 382 Z " /><path fill="rgb(252,180,64)" stroke="rgb(252,180,64)" stroke-width="1" opacity="1" d="M 312.5 383 L 311.5 385 L 312.5 383 Z " /><path fill="rgb(252,180,64)" stroke="rgb(252,180,64)" stroke-width="1" opacity="1" d="M 419.5 387 L 418.5 389 L 419.5 387 Z " /><path fill="rgb(252,180,64)" stroke="rgb(252,180,64)" stroke-width="1" opacity="1" d="M 307.5 390 L 306.5 392 L 307.5 390 Z " /><path fill="rgb(252,180,64)" stroke="rgb(252,180,64)" stroke-width="1" opacity="1" d="M 232.5 392 L 235.5 396 L 232.5 392 Z " /><path fill="rgb(252,180,64)" stroke="rgb(252,180,64)" stroke-width="1" opacity="1" d="M 415.5 392 L 413.5 395 L 415.5 392 Z " /><path fill="rgb(252,180,64)" stroke="rgb(252,180,64)" stroke-width="1" opacity="1" d="M 303.5 395 L 302.5 397 L 303.5 395 Z " /><path fill="rgb(252,180,64)" stroke="rgb(252,180,64)" stroke-width="1" opacity="1" d="M 298.5 401 L 291.5 409 L 298.5 401 Z " /><path fill="rgb(252,180,64)" stroke="rgb(252,180,64)" stroke-width="1" opacity="1" d="M 243.5 403 L 247.5 408 L 243.5 403 Z " /><path fill="rgb(252,180,64)" stroke="rgb(252,180,64)" stroke-width="1" opacity="1" d="M 401.5 406 L 399.5 409 L 401.5 406 Z " /><path fill="rgb(252,180,64)" stroke="rgb(252,180,64)" stroke-width="1" opacity="1" d="M 178.5 407 L 179.5 409 L 178.5 407 Z " /><path fill="rgb(252,180,64)" stroke="rgb(252,180,64)" stroke-width="1" opacity="1" d="M 250.5 409 L 251.5 411 L 250.5 409 Z " /><path fill="rgb(252,180,64)" stroke="rgb(252,180,64)" stroke-width="1" opacity="1" d="M 395.5 411 L 394.5 413 L 395.5 411 Z " /><path fill="rgb(252,180,64)" stroke="rgb(252,180,64)" stroke-width="1" opacity="1" d="M 465.5 411 L 464.5 413 L 465.5 411 Z " /><path fill="rgb(252,180,64)" stroke="rgb(252,180,64)" stroke-width="1" opacity="1" d="M 254.5 412 L 255.5 414 L 254.5 412 Z " /><path fill="rgb(252,180,64)" stroke="rgb(252,180,64)" stroke-width="1" opacity="1" d="M 287.5 412 L 282.5 418 L 287.5 412 Z " /><path fill="rgb(252,180,64)" stroke="rgb(252,180,64)" stroke-width="1" opacity="1" d="M 182.5 413 L 183.5 415 L 182.5 413 Z " /><path fill="rgb(252,180,64)" stroke="rgb(252,180,64)" stroke-width="1" opacity="1" d="M 463.5 414 L 462.5 416 L 463.5 414 Z " /><path fill="rgb(252,180,64)" stroke="rgb(252,180,64)" stroke-width="1" opacity="1" d="M 184.5 416 L 185.5 418 L 184.5 416 Z " /><path fill="rgb(252,180,64)" stroke="rgb(252,180,64)" stroke-width="1" opacity="1" d="M 460.5 418 L 459.5 420 L 460.5 418 Z " /><path fill="rgb(252,180,64)" stroke="rgb(252,180,64)" stroke-width="1" opacity="1" d="M 187.5 420 L 189.5 423 L 187.5 420 Z " /><path fill="rgb(252,180,64)" stroke="rgb(252,180,64)" stroke-width="1" opacity="1" d="M 278.5 420 L 277.5 422 L 278.5 420 Z " /><path fill="rgb(252,180,64)" stroke="rgb(252,180,64)" stroke-width="1" opacity="1" d="M 457.5 422 L 456.5 424 L 457.5 422 Z " /><path fill="rgb(252,180,64)" stroke="rgb(252,180,64)" stroke-width="1" opacity="1" d="M 191.5 425 L 194.5 429 L 191.5 425 Z " /><path fill="rgb(252,180,64)" stroke="rgb(252,180,64)" stroke-width="1" opacity="1" d="M 453.5 427 L 449.5 432 L 453.5 427 Z " /><path fill="rgb(252,180,64)" stroke="rgb(252,180,64)" stroke-width="1" opacity="1" d="M 197.5 432 L 207.5 443 L 197.5 432 Z " /><path fill="rgb(252,180,64)" stroke="rgb(252,180,64)" stroke-width="1" opacity="1" d="M 438.5 442 L 434.5 447 L 438.5 442 Z " /><path fill="rgb(252,180,64)" stroke="rgb(252,180,64)" stroke-width="1" opacity="1" d="M 211.5 445 L 214.5 449 L 211.5 445 Z " /><path fill="rgb(252,180,64)" stroke="rgb(252,180,64)" stroke-width="1" opacity="1" d="M 430.5 449 L 429.5 451 L 430.5 449 Z " /><path fill="rgb(252,180,64)" stroke="rgb(252,180,64)" stroke-width="1" opacity="1" d="M 217.5 450 L 218.5 452 L 217.5 450 Z " /><path fill="rgb(252,180,64)" stroke="rgb(252,180,64)" stroke-width="1" opacity="1" d="M 426.5 452 L 425.5 454 L 426.5 452 Z " /><path fill="rgb(252,180,64)" stroke="rgb(252,180,64)" stroke-width="1" opacity="1" d="M 422.5 455 L 421.5 457 L 422.5 455 Z " /><path fill="rgb(252,180,64)" stroke="rgb(252,180,64)" stroke-width="1" opacity="1" d="M 190.5 457 L 193 457.5 L 190.5 458 L 190.5 457 Z " /><path fill="rgb(252,180,64)" stroke="rgb(252,180,64)" stroke-width="1" opacity="1" d="M 160.5 458 L 168 458.5 L 160.5 459 L 160.5 458 Z " /><path fill="rgb(252,180,64)" stroke="rgb(252,180,64)" stroke-width="1" opacity="1" d="M 174.5 458 L 182 458.5 L 174.5 459 L 174.5 458 Z " /><path fill="rgb(252,180,64)" stroke="rgb(252,180,64)" stroke-width="1" opacity="1" d="M 416.5 459 L 415.5 461 L 416.5 459 Z " /><path fill="rgb(252,180,64)" stroke="rgb(252,180,64)" stroke-width="1" opacity="1" d="M 307.5 486 L 310 486.5 L 307.5 487 L 307.5 486 Z " /><path fill="rgb(252,180,64)" stroke="rgb(252,180,64)" stroke-width="1" opacity="1" d="M 337.5 486 L 340 486.5 L 337.5 487 L 337.5 486 Z " /><path fill="rgb(253,180,64)" stroke="rgb(253,180,64)" stroke-width="1" opacity="1" d="M 190 118 L 201.5 119 L 218.5 123 Q 237.1 128.4 252.5 137 L 277.5 153 L 299 173.5 L 315 194.5 L 328 219.5 L 333 232.5 L 340 261.5 L 342 293.5 L 341 294.5 L 341 306.5 L 340 307.5 L 338 324.5 L 327 357.5 Q 312.3 389.3 288.5 412 L 273.5 424 Q 251.4 413.6 236 396.5 L 232 390 L 242.5 384 L 256 373 L 274 349.5 L 282 333.5 L 287 318.5 L 290 302.5 L 290 272.5 L 286 253.5 L 276 229.5 Q 264.4 209.1 246.5 195 L 221.5 179 L 201 172 L 196 142.5 L 190 118 Z " /><path fill="rgb(253,180,64)" stroke="rgb(253,180,64)" stroke-width="1" opacity="1" d="M 393.5 160 Q 424.7 174.3 447 197.5 Q 470.7 221.8 484 256.5 L 488 268.5 L 493 292.5 Q 491.3 298.8 494 300.5 L 494 331.5 L 488 363.5 L 480 385.5 Q 464.7 418.7 439.5 442 Q 415.7 464.2 382.5 477 L 362.5 483 L 345.5 486 L 337.5 486 L 336.5 487 L 310.5 487 L 307 485.5 L 330 463.5 Q 343 449.3 352 432 Q 393.2 422 416 392.5 Q 429.4 376.9 437 355.5 L 443 327.5 L 443 304.5 L 439 283.5 L 430 260.5 Q 418.8 239.3 401 224.5 L 399 195.5 L 398 194.5 L 395 169.5 L 393 163.5 L 393.5 160 Z " /><path fill="rgb(253,180,64)" stroke="rgb(253,180,64)" stroke-width="1" opacity="1" d="M 161.5 407 L 177.5 407 L 180 409.5 Q 191.4 428.6 207.5 443 L 218 451.5 L 197.5 457 L 168.5 459 L 167.5 458 L 145.5 457 L 128 452.5 Q 147.7 432.7 161.5 407 Z " /><path fill="rgb(254,205,132)" stroke="rgb(254,205,132)" stroke-width="1" opacity="1" d="M 278.5 153 L 279.5 155 L 278.5 153 Z " /><path fill="rgb(254,205,132)" stroke="rgb(254,205,132)" stroke-width="1" opacity="1" d="M 284.5 158 L 290.5 165 L 284.5 158 Z " /><path fill="rgb(254,205,132)" stroke="rgb(254,205,132)" stroke-width="1" opacity="1" d="M 294.5 168 L 299.5 174 L 294.5 168 Z " /><path fill="rgb(254,205,132)" stroke="rgb(254,205,132)" stroke-width="1" opacity="1" d="M 303.5 178 L 304.5 180 L 303.5 178 Z " /><path fill="rgb(254,205,132)" stroke="rgb(254,205,132)" stroke-width="1" opacity="1" d="M 244.5 194 L 245.5 196 L 244.5 194 Z " /><path fill="rgb(254,205,132)" stroke="rgb(254,205,132)" stroke-width="1" opacity="1" d="M 249.5 198 L 259.5 209 L 249.5 198 Z " /><path fill="rgb(254,205,132)" stroke="rgb(254,205,132)" stroke-width="1" opacity="1" d="M 399.5 208 L 400 210.5 L 399 210.5 L 399.5 208 Z " /><path fill="rgb(254,205,132)" stroke="rgb(254,205,132)" stroke-width="1" opacity="1" d="M 143.5 433 L 142.5 435 L 143.5 433 Z " /><path fill="rgb(254,205,132)" stroke="rgb(254,205,132)" stroke-width="1" opacity="1" d="M 140.5 437 L 139.5 439 L 140.5 437 Z " /><path fill="rgb(254,205,132)" stroke="rgb(254,205,132)" stroke-width="1" opacity="1" d="M 136.5 442 L 134.5 445 L 136.5 442 Z " /><path fill="rgb(254,205,132)" stroke="rgb(254,205,132)" stroke-width="1" opacity="1" d="M 342.5 446 L 341.5 448 L 342.5 446 Z " /><path fill="rgb(254,205,132)" stroke="rgb(254,205,132)" stroke-width="1" opacity="1" d="M 130.5 449 L 127.5 453 L 130.5 449 Z " /><path fill="rgb(254,205,132)" stroke="rgb(254,205,132)" stroke-width="1" opacity="1" d="M 339.5 450 L 338.5 452 L 339.5 450 Z " /><path fill="rgb(254,205,132)" stroke="rgb(254,205,132)" stroke-width="1" opacity="1" d="M 336.5 454 L 335.5 456 L 336.5 454 Z " /><path fill="rgb(254,205,132)" stroke="rgb(254,205,132)" stroke-width="1" opacity="1" d="M 331.5 460 L 330.5 462 L 331.5 460 Z " /><path fill="rgb(254,205,132)" stroke="rgb(254,205,132)" stroke-width="1" opacity="1" d="M 325.5 467 L 314.5 479 L 325.5 467 Z " /><path fill="rgb(254,205,132)" stroke="rgb(254,205,132)" stroke-width="1" opacity="1" d="M 308.5 483 L 306.5 486 L 308.5 483 Z " /><path fill="rgb(254,206,133)" stroke="rgb(254,206,133)" stroke-width="1" opacity="1" d="M 150.5 117 L 187.5 117 L 189 118.5 L 195 140.5 L 200 171 L 182.5 168 L 159.5 168 L 138.5 172 L 115.5 181 Q 93.9 192.4 79 210.5 Q 63.8 228.3 56 253.5 L 52 272.5 L 52 302.5 Q 61 354.5 95.5 381 Q 120 402.3 160 407 Q 147 433.1 126.5 453 Q 73.3 437.2 42 399.5 Q 18.6 373.4 7 335.5 L 1 305.5 L 1 270.5 L 7 239.5 L 18 211.5 Q 33.8 180.8 58.5 159 Q 74.3 145.3 93.5 135 L 120.5 124 L 150.5 117 Z " /><path fill="rgb(254,206,133)" stroke="rgb(254,206,133)" stroke-width="1" opacity="1" d="M 313.5 145 L 333.5 145 L 334.5 146 L 351.5 147 L 369.5 151 L 392 159 L 397 184.5 L 400 223 Q 385 210.8 364.5 203 L 340.5 197 L 318.5 196 Q 316.8 198.8 315 194.5 Q 302.5 173.5 284.5 158 L 277 152.5 L 286.5 149 L 303.5 146 L 312.5 146 L 313.5 145 Z " /><path fill="rgb(254,206,133)" stroke="rgb(254,206,133)" stroke-width="1" opacity="1" d="M 220.5 180 Q 246.4 191.6 263 212.5 Q 245 223 232 238.5 Q 217 256 209 280.5 L 205 298.5 L 204 324.5 L 209 351.5 L 220 376.5 Q 231.2 395.3 247.5 409 Q 264.8 423.2 288.5 431 L 306.5 435 L 331.5 436 L 332.5 435 L 340.5 435 L 350.5 433 L 350 434.5 Q 333.5 462.5 309.5 483 L 305.5 486 L 301.5 486 L 277.5 481 L 262.5 476 L 239.5 465 Q 213.9 450.1 195 428.5 Q 173.8 404.7 162 371.5 L 157 353.5 L 154 336.5 L 153 305.5 L 154 304.5 L 154 295.5 L 157 278.5 L 161 263.5 L 168 245.5 Q 184.1 211.6 210.5 188 L 220.5 180 Z " /></svg>